# AST/ASF file generated using VICON BodyLanguage
# -----------------------------------------------
:version 1.10
:name VICON
:units
  mass 1.0
  length 0.45
  angle deg
:documentation
   .ast/.asf automatically generated from VICON data using
   VICON BodyBuilder and BodyLanguage model FoxedUp or BRILLIANT.MOD
:root
   order TX TY TZ RX RY RZ
   axis XYZ
   position 0 0 0  
   orientation 0 0 0 
:bonedata
  begin
     id 1 
     name lhipjoint
     direction 0.584852 -0.759097 0.285867 
     length 2.43633 
     axis 0 0 0  XYZ
  end
  begin
     id 2 
     name lfemur
     direction 0.34202 -0.939693 0  
     length 7.14704  
     axis 0 0 20  XYZ
    dof rx ry rz
    limits (-160.0 20.0)
           (-70.0 70.0)
           (-60.0 70.0)
  end
  begin
     id 3 
     name ltibia
     direction 0.342022 -0.939692 0   
     length 7.68483   
     axis 0 0 20   XYZ
    dof rx
    limits (-10.0 170.0)
  end
  begin
     id 4 
     name lfoot
     direction 0.0999605 -0.274639 0.956337   
     length 2.40452   
     axis -90 7.62852e-016 20   XYZ
    dof rx rz
    limits (-45.0 90.0)
           (-70.0 20.0)
  end
  begin
     id 5 
     name ltoes
     direction 1.53468e-011 -4.21881e-011 1   
     length 1.19837   
     axis -90 7.62852e-016 20   XYZ
    dof rx
    limits (-90.0 20.0)
  end
  begin
     id 6 
     name rhipjoint
     direction -0.569886 -0.769002 0.289597   
     length 2.40495  
     axis 0 0 0  XYZ 
  end
  begin
     id 7 
     name rfemur
     direction -0.34202 -0.939693 0   
     length 7.45086   
     axis 0 0 -20   XYZ
    dof rx ry rz
    limits (-160.0 20.0)
           (-70.0 70.0)
           (-70.0 60.0)
  end
  begin
     id 8 
     name rtibia
     direction -0.34202 -0.939693 0   
     length 7.76831   
     axis 0 0 -20   XYZ
    dof rx
    limits (-10.0 170.0)
 end
 begin
     id 9 
     name rfoot
     direction -0.0798572 -0.219406 0.97236   
     length 2.35911  
     axis -90 -7.62852e-016 -20   XYZ
    dof rx rz
    limits (-45.0 90.0)
           (-20.0 70.0)
  end
  begin
     id 10 
     name rtoes
     direction -1.53469e-011 -4.21728e-011 1   
     length 1.18261   
     axis -90 -7.62852e-016 -20   XYZ
    dof rx
    limits (-90.0 20.0)
  end
  begin
     id 11 
     name lowerback
     direction 0.0242088 0.999437 0.0232389   
     length 2.1561   
     axis 0 0 0   XYZ
    dof rx ry rz
    limits (-20.0 45.0)
           (-30.0 30.0)
           (-30.0 30.0)
  end
  begin
     id 12 
     name upperback
     direction -0.0356893 0.999013 -0.0264323   
     length 2.14431   
     axis 0 0 0   XYZ
    dof rx ry rz
    limits (-20.0 45.0)
           (-30.0 30.0)
           (-30.0 30.0)
  end
  begin
     id 13 
     name thorax
     direction -0.0472163 0.998194 -0.0371284   
     length 2.16169   
     axis 0 0 0   XYZ
    dof rx ry rz
    limits (-20.0 45.0)
           (-30.0 30.0)
           (-30.0 30.0)
  end
  begin
     id 14 
     name lowerneck
     direction 0.00863244 0.999921 0.00911972   
     length 1.58651   
     axis 0 0 0   XYZ
    dof rx ry rz
    limits (-20.0 45.0)
           (-30.0 30.0)
           (-30.0 30.0)
  end
  begin
     id 15 
     name upperneck
     direction 0.149523 0.979068 -0.138086   
     length 1.57486   
     axis 0 0 0   XYZ
    dof rx ry rz
    limits (-20.0 45.0)
           (-30.0 30.0)
           (-30.0 30.0)
  end
  begin
     id 16
     name head
     direction 0.0445219 0.997708 -0.0509576  
     length 1.6019  
     axis 0 0 0   XYZ
    dof rx ry rz
    limits (-20.0 45.0)
           (-30.0 30.0)
           (-30.0 30.0)
  end
  begin
     id 17 
     name lclavicle
     direction 0.911271 0.381667 -0.154644  
     length 3.80848  
     axis 0 0 0   XYZ
    dof ry rz
    limits (-20.0 10.0)
           (0.0 20.0)
  end
  begin
     id 18 
     name lhumerus
     direction 1 -4.49003e-011 2.1308e-027   
     length 5.19069   
     axis 180 -30 -90   XYZ
    dof rx ry rz
    limits (-60.0 90.0)
           (-90.0 90.0)
           (-90.0 90.0)
  end
  begin
     id 19
     name lradius
     direction 1 -4.48914e-011 4.01554e-027   
     length 3.30016   
     axis 180 -30 -90   XYZ
    dof rx
    limits (-10.0 170.0)
  end
  begin
     id 20
     name lwrist
     direction 1 -4.49003e-011 1.1934e-026   
     length 1.65008   
     axis -8.46377e-015 90 90   XYZ
    dof ry
    limits (-180.0 0.0)
 end
  begin
     id 21 
     name lhand
     direction 1 -4.49034e-011 2.38659e-026   
     length 0.707698   
     axis -1.52313e-014 90 90   XYZ
    dof rx rz
    limits (-90.0 90.0)
           (-45.0 45.0)
  end
  begin
     id 22 
     name lfingers
     direction 1 -4.48691e-011 4.77775e-026   
     length 0.570564   
     axis -3.04623e-014 90 90   XYZ
    dof rx
    limits (0.0 90.0)
  end
  begin
     id 23
     name lthumb
     direction 0.707107 -6.34832e-011 0.707107   
     length 0.819219   
     axis -90 45 -1.62303e-014   XYZ
    dof rx rz
    limits (-45.0 45.0)
           (-45.0 45.0)
  end
  begin
     id 24 
     name rclavicle
     direction -0.815579 0.573708 -0.0754329   
     length 3.54371  
     axis 0 0 0   XYZ 
    dof ry rz
    limits (-10.0 20.0)
           (-20.0 0.0)
  end
  begin
     id 25 
     name rhumerus
     direction -1 -4.48956e-011 3.05351e-028  
     length 5.23924   
     axis 180 30 90   XYZ
    dof rx ry rz
    limits (-90.0 60.0)
           (-90.0 90.0)
           (-90.0 90.0)
  end
  begin
     id 26 
     name rradius
     direction -1 -4.49013e-011 3.53849e-027   
     length 3.32953   
     axis 180 30 90   XYZ
    dof rx
    limits (-10.0 170.0)
  end
  begin
     id 27 
     name rwrist
     direction -1 -4.48901e-011 1.19374e-026   
     length 1.66477   
     axis -8.46377e-015 -90 -90   XYZ
    dof ry
    limits (-180.0 0.0)
  end
  begin
     id 28
     name rhand
     direction -1 -4.48877e-011 2.38764e-026   
     length 0.607414   
     axis -1.52313e-014 -90 -90   XYZ
    dof rx rz
    limits (-90.0 90.0)
           (-45.0 45.0)
  end
  begin
     id 29
     name rfingers
     direction -1 -4.48882e-011 4.77521e-026   
     length 0.489712   
     axis -3.04623e-014 -90 -90   XYZ
    dof rx
    limits (0.0 90.0)
  end
  begin
     id 30
     name rthumb
     direction -0.707107 -6.34974e-011 0.707107   
     length 0.703132   
     axis -90 -45 1.62303e-014   XYZ
    dof rx rz
    limits (-45.0 45.0)
           (-45.0 45.0)
  end
:hierarchy
  begin
    root lhipjoint rhipjoint lowerback
    lhipjoint lfemur
    lfemur ltibia
    ltibia lfoot
    lfoot ltoes
    rhipjoint rfemur
    rfemur rtibia
    rtibia rfoot
    rfoot rtoes
    lowerback upperback
    upperback thorax
    thorax lowerneck lclavicle rclavicle
    lowerneck upperneck
    upperneck head
    lclavicle lhumerus
    lhumerus lradius
    lradius lwrist
    lwrist lhand lthumb
    lhand lfingers
    rclavicle rhumerus
    rhumerus rradius
    rradius rwrist
    rwrist rhand rthumb
    rhand rfingers
  end

#!OML:ASF E:\VariousWalksJay\Project 1\Capture day 1\Session 1\Actor2.ASF
:FULLY-SPECIFIED
:DEGREES
414
root 14.4605 16.6695 36.4585 178.43 -48.7334 -180.831
lowerback -5.54613 -1.65754 -3.55435
upperback 0.727964 -2.10364 -7.55414
thorax 3.71195 -1.21538 -6.09726
lowerneck -2.28945 -6.42855 -7.78128
upperneck 16.3126 -12.1253 16.3891
head 6.77389 -5.80333 5.66629
rclavicle 1.30005e-013 -3.49861e-014
rhumerus -34.6396 42.412 -98.6915
rradius 73.5581
rwrist -3.64105
rhand 1.98151 -6.7766
rfingers 7.12502
rthumb 27.4869 -34.7906
lclavicle 1.30005e-013 -3.49861e-014
lhumerus -13.6836 -23.9179 76.9335
lradius 42.5312
lwrist 12.2865
lhand -14.8732 -6.44765
lfingers 7.12502
lthumb 11.2871 23.2287
rfemur -28.7931 9.43376 21.8273
rtibia 81.5426
rfoot -10.9416 -5.62731
rtoes -17.7822
lfemur 3.19292 6.83556 -16.1715
ltibia 20.9076
lfoot -21.1746 3.6376
ltoes -1.40466
415
root 14.4467 16.6719 36.4323 178.802 -48.2795 -181.403
lowerback -4.88281 -1.62228 -3.71205
upperback 1.04738 -2.0862 -7.66721
thorax 3.6734 -1.21366 -6.10839
lowerneck -2.30298 -6.37803 -7.72425
upperneck 17.0331 -12.169 16.1232
head 6.99123 -5.82651 5.56892
rclavicle -5.10877e-014 -2.22639e-014
rhumerus -34.9831 42.0775 -98.8293
rradius 73.3508
rwrist -3.35042
rhand 1.55967 -6.74904
rfingers 7.12502
rthumb 27.0834 -34.8265
lclavicle -5.10877e-014 -2.22639e-014
lhumerus -13.3814 -23.9833 77.0571
lradius 42.6995
lwrist 12.2219
lhand -15.1134 -6.62659
lfingers 7.12502
lthumb 11.0554 23.0622
rfemur -30.8819 9.4064 21.1807
rtibia 81.068
rfoot -11.5744 -7.68737
rtoes -16.5292
lfemur 3.66925 6.95824 -16.594
ltibia 20.3536
lfoot -20.9584 4.08422
ltoes -1.89438
416
root 14.4261 16.6745 36.4043 179.054 -47.8882 -181.737
lowerback -4.32465 -1.58131 -3.69437
upperback 1.3507 -2.0595 -7.71192
thorax 3.67435 -1.20076 -6.15003
lowerneck -2.29669 -6.34129 -7.61445
upperneck 17.649 -12.2138 15.8521
head 7.16988 -5.85066 5.4604
rclavicle -3.89618e-014 -2.54444e-014
rhumerus -35.3644 41.8574 -98.986
rradius 73.0451
rwrist -3.14102
rhand 1.18655 -6.77659
rfingers 7.12502
rthumb 26.7264 -34.9091
lclavicle -3.89618e-014 -2.54444e-014
lhumerus -13.245 -24.0701 77.2336
lradius 42.8607
lwrist 12.2696
lhand -15.2318 -6.72255
lfingers 7.12502
lthumb 10.9412 22.9724
rfemur -32.6625 9.31061 20.6752
rtibia 79.8915
rfoot -12.0514 -9.34498
rtoes -15.3393
lfemur 4.01138 7.04116 -16.865
ltibia 19.9531
lfoot -20.8078 4.5091
ltoes -2.46782
417
root 14.3988 16.6772 36.3733 179.184 -47.5616 -181.821
lowerback -3.88987 -1.54145 -3.50228
upperback 1.64258 -2.02659 -7.67838
thorax 3.73047 -1.17702 -6.21221
lowerneck -2.29934 -6.30597 -7.51331
upperneck 18.1619 -12.2527 15.652
head 7.32231 -5.86983 5.37652
rclavicle 3.02153e-014 3.18055e-015
rhumerus -35.7525 41.7898 -99.1462
rradius 72.6439
rwrist -3.05505
rhand 0.88724 -6.86439
rfingers 7.12502
rthumb 26.4399 -35.0403
lclavicle 3.02153e-014 3.18055e-015
lhumerus -13.2491 -24.1542 77.4704
lradius 42.982
lwrist 12.412
lhand -15.2434 -6.74789
lfingers 7.12502
lthumb 10.93 22.9476
rfemur -34.1154 9.19015 20.3222
rtibia 78.0632
rfoot -12.3525 -10.6035
rtoes -14.3285
lfemur 4.21921 7.09849 -16.9599
ltibia 19.7164
lfoot -20.7371 4.88081
ltoes -3.06702
418
root 14.3654 16.6792 36.3378 179.209 -47.304 -181.683
lowerback -3.56167 -1.50858 -3.16046
upperback 1.91069 -1.99628 -7.57653
thorax 3.81934 -1.14739 -6.29077
lowerneck -2.30367 -6.27981 -7.40254
upperneck 18.5774 -12.2921 15.4909
head 7.44633 -5.88742 5.30303
rclavicle -2.57426e-014 -3.81667e-014
rhumerus -36.1539 41.89 -99.3361
rradius 72.154
rwrist -3.09524
rhand 0.681952 -7.00613
rfingers 7.12502
rthumb 26.2434 -35.2114
lclavicle -2.57426e-014 -3.81667e-014
lhumerus -13.4265 -24.2415 77.748
lradius 43.0746
lwrist 12.6414
lhand -15.1729 -6.71112
lfingers 7.12502
lthumb 10.9979 22.9808
rfemur -35.2237 9.07831 20.1051
rtibia 75.6589
rfoot -12.4891 -11.5593
rtoes -13.582
lfemur 4.30756 7.14134 -16.8845
ltibia 19.6373
lfoot -20.7597 5.17264
ltoes -3.6234
